<?xml version="1.0" standalone="no"?>
<!DOCTYPE svg PUBLIC "-//W3C//DTD SVG 20010904//EN"
 "http://www.w3.org/TR/2001/REC-SVG-20010904/DTD/svg10.dtd">
<svg version="1.0" xmlns="http://www.w3.org/2000/svg"
 width="400.000000pt" height="400.000000pt" viewBox="0 0 400.000000 400.000000"
 preserveAspectRatio="xMidYMid meet">
<metadata>
Created by potrace 1.11, written by Peter Selinger 2001-2013
</metadata>
<g transform="translate(0.000000,400.000000) scale(0.100000,-0.100000)"
fill="#000000" stroke="none">
<path d="M0 2000 l0 -2000 2000 0 2000 0 0 2000 0 2000 -2000 0 -2000 0 0
-2000z m2278 458 c7 -7 12 -18 12 -25 0 -7 -40 -78 -90 -157 -49 -80 -90 -147
-90 -150 0 -3 56 -6 124 -6 96 0 126 -3 136 -15 6 -8 10 -18 8 -23 -6 -17
-569 -620 -583 -626 -8 -3 -21 2 -29 10 -17 17 -17 20 87 276 l55 137 -110 3
c-90 2 -113 6 -121 20 -8 12 13 74 98 278 60 145 115 269 123 276 18 19 362
20 380 2z"/>
</g>
</svg>
